<svg class="rich-terminal" viewBox="0 0 1482 830.8" xmlns="http://www.w3.org/2000/svg">
    <!-- Generated with Rich https://www.textualize.io -->
    <style>

    @font-face {
        font-family: "Fira Code";
        src: local("FiraCode-Regular"),
                url("https://cdnjs.cloudflare.com/ajax/libs/firacode/6.2.0/woff2/FiraCode-Regular.woff2") format("woff2"),
                url("https://cdnjs.cloudflare.com/ajax/libs/firacode/6.2.0/woff/FiraCode-Regular.woff") format("woff");
        font-style: normal;
        font-weight: 400;
    }
    @font-face {
        font-family: "Fira Code";
        src: local("FiraCode-Bold"),
                url("https://cdnjs.cloudflare.com/ajax/libs/firacode/6.2.0/woff2/FiraCode-Bold.woff2") format("woff2"),
                url("https://cdnjs.cloudflare.com/ajax/libs/firacode/6.2.0/woff/FiraCode-Bold.woff") format("woff");
        font-style: bold;
        font-weight: 700;
    }

    .terminal-1252949026-matrix {
        font-family: Fira Code, monospace;
        font-size: 20px;
        line-height: 24.4px;
        font-variant-east-asian: full-width;
    }

    .terminal-1252949026-title {
        font-size: 18px;
        font-weight: bold;
        font-family: arial;
    }

    .terminal-1252949026-r1 { fill: #0178d4 }
.terminal-1252949026-r2 { fill: #c5c8c6 }
.terminal-1252949026-r3 { fill: #e0e0e0 }
.terminal-1252949026-r4 { fill: #ffa62b;font-weight: bold }
.terminal-1252949026-r5 { fill: #495259 }
    </style>

    <defs>
    <clipPath id="terminal-1252949026-clip-terminal">
      <rect x="0" y="0" width="1463.0" height="779.8" />
    </clipPath>
    <clipPath id="terminal-1252949026-line-0">
    <rect x="0" y="1.5" width="1464" height="24.65"/>
            </clipPath>
<clipPath id="terminal-1252949026-line-1">
    <rect x="0" y="25.9" width="1464" height="24.65"/>
            </clipPath>
<clipPath id="terminal-1252949026-line-2">
    <rect x="0" y="50.3" width="1464" height="24.65"/>
            </clipPath>
<clipPath id="terminal-1252949026-line-3">
    <rect x="0" y="74.7" width="1464" height="24.65"/>
            </clipPath>
<clipPath id="terminal-1252949026-line-4">
    <rect x="0" y="99.1" width="1464" height="24.65"/>
            </clipPath>
<clipPath id="terminal-1252949026-line-5">
    <rect x="0" y="123.5" width="1464" height="24.65"/>
            </clipPath>
<clipPath id="terminal-1252949026-line-6">
    <rect x="0" y="147.9" width="1464" height="24.65"/>
            </clipPath>
<clipPath id="terminal-1252949026-line-7">
    <rect x="0" y="172.3" width="1464" height="24.65"/>
            </clipPath>
<clipPath id="terminal-1252949026-line-8">
    <rect x="0" y="196.7" width="1464" height="24.65"/>
            </clipPath>
<clipPath id="terminal-1252949026-line-9">
    <rect x="0" y="221.1" width="1464" height="24.65"/>
            </clipPath>
<clipPath id="terminal-1252949026-line-10">
    <rect x="0" y="245.5" width="1464" height="24.65"/>
            </clipPath>
<clipPath id="terminal-1252949026-line-11">
    <rect x="0" y="269.9" width="1464" height="24.65"/>
            </clipPath>
<clipPath id="terminal-1252949026-line-12">
    <rect x="0" y="294.3" width="1464" height="24.65"/>
            </clipPath>
<clipPath id="terminal-1252949026-line-13">
    <rect x="0" y="318.7" width="1464" height="24.65"/>
            </clipPath>
<clipPath id="terminal-1252949026-line-14">
    <rect x="0" y="343.1" width="1464" height="24.65"/>
            </clipPath>
<clipPath id="terminal-1252949026-line-15">
    <rect x="0" y="367.5" width="1464" height="24.65"/>
            </clipPath>
<clipPath id="terminal-1252949026-line-16">
    <rect x="0" y="391.9" width="1464" height="24.65"/>
            </clipPath>
<clipPath id="terminal-1252949026-line-17">
    <rect x="0" y="416.3" width="1464" height="24.65"/>
            </clipPath>
<clipPath id="terminal-1252949026-line-18">
    <rect x="0" y="440.7" width="1464" height="24.65"/>
            </clipPath>
<clipPath id="terminal-1252949026-line-19">
    <rect x="0" y="465.1" width="1464" height="24.65"/>
            </clipPath>
<clipPath id="terminal-1252949026-line-20">
    <rect x="0" y="489.5" width="1464" height="24.65"/>
            </clipPath>
<clipPath id="terminal-1252949026-line-21">
    <rect x="0" y="513.9" width="1464" height="24.65"/>
            </clipPath>
<clipPath id="terminal-1252949026-line-22">
    <rect x="0" y="538.3" width="1464" height="24.65"/>
            </clipPath>
<clipPath id="terminal-1252949026-line-23">
    <rect x="0" y="562.7" width="1464" height="24.65"/>
            </clipPath>
<clipPath id="terminal-1252949026-line-24">
    <rect x="0" y="587.1" width="1464" height="24.65"/>
            </clipPath>
<clipPath id="terminal-1252949026-line-25">
    <rect x="0" y="611.5" width="1464" height="24.65"/>
            </clipPath>
<clipPath id="terminal-1252949026-line-26">
    <rect x="0" y="635.9" width="1464" height="24.65"/>
            </clipPath>
<clipPath id="terminal-1252949026-line-27">
    <rect x="0" y="660.3" width="1464" height="24.65"/>
            </clipPath>
<clipPath id="terminal-1252949026-line-28">
    <rect x="0" y="684.7" width="1464" height="24.65"/>
            </clipPath>
<clipPath id="terminal-1252949026-line-29">
    <rect x="0" y="709.1" width="1464" height="24.65"/>
            </clipPath>
<clipPath id="terminal-1252949026-line-30">
    <rect x="0" y="733.5" width="1464" height="24.65"/>
            </clipPath>
    </defs>

    <rect fill="#292929" stroke="rgba(255,255,255,0.35)" stroke-width="1" x="1" y="1" width="1480" height="828.8" rx="8"/><text class="terminal-1252949026-title" fill="#c5c8c6" text-anchor="middle" x="740" y="27">VllmStatApp</text>
            <g transform="translate(26,22)">
            <circle cx="0" cy="0" r="7" fill="#ff5f57"/>
            <circle cx="22" cy="0" r="7" fill="#febc2e"/>
            <circle cx="44" cy="0" r="7" fill="#28c840"/>
            </g>
        
    <g transform="translate(9, 41)" clip-path="url(#terminal-1252949026-clip-terminal)">
    <rect fill="#121212" x="0" y="1.5" width="12.2" height="24.65" shape-rendering="crispEdges"/><rect fill="#121212" x="12.2" y="1.5" width="1439.6" height="24.65" shape-rendering="crispEdges"/><rect fill="#121212" x="1451.8" y="1.5" width="12.2" height="24.65" shape-rendering="crispEdges"/><rect fill="#121212" x="0" y="25.9" width="12.2" height="24.65" shape-rendering="crispEdges"/><rect fill="#121212" x="12.2" y="25.9" width="12.2" height="24.65" shape-rendering="crispEdges"/><rect fill="#121212" x="24.4" y="25.9" width="988.2" height="24.65" shape-rendering="crispEdges"/><rect fill="#121212" x="1012.6" y="25.9" width="427" height="24.65" shape-rendering="crispEdges"/><rect fill="#121212" x="1439.6" y="25.9" width="12.2" height="24.65" shape-rendering="crispEdges"/><rect fill="#121212" x="1451.8" y="25.9" width="12.2" height="24.65" shape-rendering="crispEdges"/><rect fill="#121212" x="0" y="50.3" width="12.2" height="24.65" shape-rendering="crispEdges"/><rect fill="#121212" x="12.2" y="50.3" width="1439.6" height="24.65" shape-rendering="crispEdges"/><rect fill="#121212" x="1451.8" y="50.3" width="12.2" height="24.65" shape-rendering="crispEdges"/><rect fill="#121212" x="0" y="74.7" width="12.2" height="24.65" shape-rendering="crispEdges"/><rect fill="#121212" x="12.2" y="74.7" width="463.6" height="24.65" shape-rendering="crispEdges"/><rect fill="#121212" x="475.8" y="74.7" width="12.2" height="24.65" shape-rendering="crispEdges"/><rect fill="#121212" x="488" y="74.7" width="12.2" height="24.65" shape-rendering="crispEdges"/><rect fill="#121212" x="500.2" y="74.7" width="463.6" height="24.65" shape-rendering="crispEdges"/><rect fill="#121212" x="963.8" y="74.7" width="12.2" height="24.65" shape-rendering="crispEdges"/><rect fill="#121212" x="976" y="74.7" width="12.2" height="24.65" shape-rendering="crispEdges"/><rect fill="#121212" x="988.2" y="74.7" width="463.6" height="24.65" shape-rendering="crispEdges"/><rect fill="#121212" x="1451.8" y="74.7" width="12.2" height="24.65" shape-rendering="crispEdges"/><rect fill="#121212" x="0" y="99.1" width="12.2" height="24.65" shape-rendering="crispEdges"/><rect fill="#121212" x="12.2" y="99.1" width="12.2" height="24.65" shape-rendering="crispEdges"/><rect fill="#121212" x="24.4" y="99.1" width="134.2" height="24.65" shape-rendering="crispEdges"/><rect fill="#121212" x="158.6" y="99.1" width="305" height="24.65" shape-rendering="crispEdges"/><rect fill="#121212" x="463.6" y="99.1" width="12.2" height="24.65" shape-rendering="crispEdges"/><rect fill="#121212" x="475.8" y="99.1" width="12.2" height="24.65" shape-rendering="crispEdges"/><rect fill="#121212" x="488" y="99.1" width="12.2" height="24.65" shape-rendering="crispEdges"/><rect fill="#121212" x="500.2" y="99.1" width="12.2" height="24.65" shape-rendering="crispEdges"/><rect fill="#121212" x="512.4" y="99.1" width="122" height="24.65" shape-rendering="crispEdges"/><rect fill="#121212" x="634.4" y="99.1" width="317.2" height="24.65" shape-rendering="crispEdges"/><rect fill="#121212" x="951.6" y="99.1" width="12.2" height="24.65" shape-rendering="crispEdges"/><rect fill="#121212" x="963.8" y="99.1" width="12.2" height="24.65" shape-rendering="crispEdges"/><rect fill="#121212" x="976" y="99.1" width="12.2" height="24.65" shape-rendering="crispEdges"/><rect fill="#121212" x="988.2" y="99.1" width="12.2" height="24.65" shape-rendering="crispEdges"/><rect fill="#121212" x="1000.4" y="99.1" width="195.2" height="24.65" shape-rendering="crispEdges"/><rect fill="#121212" x="1195.6" y="99.1" width="244" height="24.65" shape-rendering="crispEdges"/><rect fill="#121212" x="1439.6" y="99.1" width="12.2" height="24.65" shape-rendering="crispEdges"/><rect fill="#121212" x="1451.8" y="99.1" width="12.2" height="24.65" shape-rendering="crispEdges"/><rect fill="#121212" x="0" y="123.5" width="12.2" height="24.65" shape-rendering="crispEdges"/><rect fill="#121212" x="12.2" y="123.5" width="12.2" height="24.65" shape-rendering="crispEdges"/><rect fill="#121212" x="24.4" y="123.5" width="244" height="24.65" shape-rendering="crispEdges"/><rect fill="#121212" x="268.4" y="123.5" width="195.2" height="24.65" shape-rendering="crispEdges"/><rect fill="#121212" x="463.6" y="123.5" width="12.2" height="24.65" shape-rendering="crispEdges"/><rect fill="#121212" x="475.8" y="123.5" width="12.2" height="24.65" shape-rendering="crispEdges"/><rect fill="#121212" x="488" y="123.5" width="12.2" height="24.65" shape-rendering="crispEdges"/><rect fill="#121212" x="500.2" y="123.5" width="12.2" height="24.65" shape-rendering="crispEdges"/><rect fill="#121212" x="512.4" y="123.5" width="317.2" height="24.65" shape-rendering="crispEdges"/><rect fill="#121212" x="829.6" y="123.5" width="122" height="24.65" shape-rendering="crispEdges"/><rect fill="#121212" x="951.6" y="123.5" width="12.2" height="24.65" shape-rendering="crispEdges"/><rect fill="#121212" x="963.8" y="123.5" width="12.2" height="24.65" shape-rendering="crispEdges"/><rect fill="#121212" x="976" y="123.5" width="12.2" height="24.65" shape-rendering="crispEdges"/><rect fill="#121212" x="988.2" y="123.5" width="12.2" height="24.65" shape-rendering="crispEdges"/><rect fill="#121212" x="1000.4" y="123.5" width="378.2" height="24.65" shape-rendering="crispEdges"/><rect fill="#121212" x="1378.6" y="123.5" width="61" height="24.65" shape-rendering="crispEdges"/><rect fill="#121212" x="1439.6" y="123.5" width="12.2" height="24.65" shape-rendering="crispEdges"/><rect fill="#121212" x="1451.8" y="123.5" width="12.2" height="24.65" shape-rendering="crispEdges"/><rect fill="#121212" x="0" y="147.9" width="12.2" height="24.65" shape-rendering="crispEdges"/><rect fill="#121212" x="12.2" y="147.9" width="12.2" height="24.65" shape-rendering="crispEdges"/><rect fill="#121212" x="24.4" y="147.9" width="244" height="24.65" shape-rendering="crispEdges"/><rect fill="#121212" x="268.4" y="147.9" width="195.2" height="24.65" shape-rendering="crispEdges"/><rect fill="#121212" x="463.6" y="147.9" width="12.2" height="24.65" shape-rendering="crispEdges"/><rect fill="#121212" x="475.8" y="147.9" width="12.2" height="24.65" shape-rendering="crispEdges"/><rect fill="#121212" x="488" y="147.9" width="12.2" height="24.65" shape-rendering="crispEdges"/><rect fill="#121212" x="500.2" y="147.9" width="12.2" height="24.65" shape-rendering="crispEdges"/><rect fill="#121212" x="512.4" y="147.9" width="329.4" height="24.65" shape-rendering="crispEdges"/><rect fill="#121212" x="841.8" y="147.9" width="109.8" height="24.65" shape-rendering="crispEdges"/><rect fill="#121212" x="951.6" y="147.9" width="12.2" height="24.65" shape-rendering="crispEdges"/><rect fill="#121212" x="963.8" y="147.9" width="12.2" height="24.65" shape-rendering="crispEdges"/><rect fill="#121212" x="976" y="147.9" width="12.2" height="24.65" shape-rendering="crispEdges"/><rect fill="#121212" x="988.2" y="147.9" width="12.2" height="24.65" shape-rendering="crispEdges"/><rect fill="#121212" x="1000.4" y="147.9" width="378.2" height="24.65" shape-rendering="crispEdges"/><rect fill="#121212" x="1378.6" y="147.9" width="61" height="24.65" shape-rendering="crispEdges"/><rect fill="#121212" x="1439.6" y="147.9" width="12.2" height="24.65" shape-rendering="crispEdges"/><rect fill="#121212" x="1451.8" y="147.9" width="12.2" height="24.65" shape-rendering="crispEdges"/><rect fill="#121212" x="0" y="172.3" width="12.2" height="24.65" shape-rendering="crispEdges"/><rect fill="#121212" x="12.2" y="172.3" width="12.2" height="24.65" shape-rendering="crispEdges"/><rect fill="#121212" x="24.4" y="172.3" width="170.8" height="24.65" shape-rendering="crispEdges"/><rect fill="#121212" x="195.2" y="172.3" width="268.4" height="24.65" shape-rendering="crispEdges"/><rect fill="#121212" x="463.6" y="172.3" width="12.2" height="24.65" shape-rendering="crispEdges"/><rect fill="#121212" x="475.8" y="172.3" width="12.2" height="24.65" shape-rendering="crispEdges"/><rect fill="#121212" x="488" y="172.3" width="12.2" height="24.65" shape-rendering="crispEdges"/><rect fill="#121212" x="500.2" y="172.3" width="12.2" height="24.65" shape-rendering="crispEdges"/><rect fill="#121212" x="512.4" y="172.3" width="329.4" height="24.65" shape-rendering="crispEdges"/><rect fill="#121212" x="841.8" y="172.3" width="109.8" height="24.65" shape-rendering="crispEdges"/><rect fill="#121212" x="951.6" y="172.3" width="12.2" height="24.65" shape-rendering="crispEdges"/><rect fill="#121212" x="963.8" y="172.3" width="12.2" height="24.65" shape-rendering="crispEdges"/><rect fill="#121212" x="976" y="172.3" width="12.2" height="24.65" shape-rendering="crispEdges"/><rect fill="#121212" x="988.2" y="172.3" width="12.2" height="24.65" shape-rendering="crispEdges"/><rect fill="#121212" x="1000.4" y="172.3" width="378.2" height="24.65" shape-rendering="crispEdges"/><rect fill="#121212" x="1378.6" y="172.3" width="61" height="24.65" shape-rendering="crispEdges"/><rect fill="#121212" x="1439.6" y="172.3" width="12.2" height="24.65" shape-rendering="crispEdges"/><rect fill="#121212" x="1451.8" y="172.3" width="12.2" height="24.65" shape-rendering="crispEdges"/><rect fill="#121212" x="0" y="196.7" width="12.2" height="24.65" shape-rendering="crispEdges"/><rect fill="#121212" x="12.2" y="196.7" width="463.6" height="24.65" shape-rendering="crispEdges"/><rect fill="#121212" x="475.8" y="196.7" width="12.2" height="24.65" shape-rendering="crispEdges"/><rect fill="#121212" x="488" y="196.7" width="12.2" height="24.65" shape-rendering="crispEdges"/><rect fill="#121212" x="500.2" y="196.7" width="463.6" height="24.65" shape-rendering="crispEdges"/><rect fill="#121212" x="963.8" y="196.7" width="12.2" height="24.65" shape-rendering="crispEdges"/><rect fill="#121212" x="976" y="196.7" width="12.2" height="24.65" shape-rendering="crispEdges"/><rect fill="#121212" x="988.2" y="196.7" width="12.2" height="24.65" shape-rendering="crispEdges"/><rect fill="#121212" x="1000.4" y="196.7" width="378.2" height="24.65" shape-rendering="crispEdges"/><rect fill="#121212" x="1378.6" y="196.7" width="61" height="24.65" shape-rendering="crispEdges"/><rect fill="#121212" x="1439.6" y="196.7" width="12.2" height="24.65" shape-rendering="crispEdges"/><rect fill="#121212" x="1451.8" y="196.7" width="12.2" height="24.65" shape-rendering="crispEdges"/><rect fill="#121212" x="0" y="221.1" width="976" height="24.65" shape-rendering="crispEdges"/><rect fill="#121212" x="976" y="221.1" width="12.2" height="24.65" shape-rendering="crispEdges"/><rect fill="#121212" x="988.2" y="221.1" width="12.2" height="24.65" shape-rendering="crispEdges"/><rect fill="#121212" x="1000.4" y="221.1" width="378.2" height="24.65" shape-rendering="crispEdges"/><rect fill="#121212" x="1378.6" y="221.1" width="61" height="24.65" shape-rendering="crispEdges"/><rect fill="#121212" x="1439.6" y="221.1" width="12.2" height="24.65" shape-rendering="crispEdges"/><rect fill="#121212" x="1451.8" y="221.1" width="12.2" height="24.65" shape-rendering="crispEdges"/><rect fill="#121212" x="0" y="245.5" width="976" height="24.65" shape-rendering="crispEdges"/><rect fill="#121212" x="976" y="245.5" width="12.2" height="24.65" shape-rendering="crispEdges"/><rect fill="#121212" x="988.2" y="245.5" width="463.6" height="24.65" shape-rendering="crispEdges"/><rect fill="#121212" x="1451.8" y="245.5" width="12.2" height="24.65" shape-rendering="crispEdges"/><rect fill="#121212" x="0" y="269.9" width="12.2" height="24.65" shape-rendering="crispEdges"/><rect fill="#121212" x="12.2" y="269.9" width="1439.6" height="24.65" shape-rendering="crispEdges"/><rect fill="#121212" x="1451.8" y="269.9" width="12.2" height="24.65" shape-rendering="crispEdges"/><rect fill="#121212" x="0" y="294.3" width="12.2" height="24.65" shape-rendering="crispEdges"/><rect fill="#121212" x="12.2" y="294.3" width="12.2" height="24.65" shape-rendering="crispEdges"/><rect fill="#121212" x="24.4" y="294.3" width="207.4" height="24.65" shape-rendering="crispEdges"/><rect fill="#121212" x="231.8" y="294.3" width="1207.8" height="24.65" shape-rendering="crispEdges"/><rect fill="#121212" x="1439.6" y="294.3" width="12.2" height="24.65" shape-rendering="crispEdges"/><rect fill="#121212" x="1451.8" y="294.3" width="12.2" height="24.65" shape-rendering="crispEdges"/><rect fill="#121212" x="0" y="318.7" width="12.2" height="24.65" shape-rendering="crispEdges"/><rect fill="#121212" x="12.2" y="318.7" width="12.2" height="24.65" shape-rendering="crispEdges"/><rect fill="#121212" x="24.4" y="318.7" width="1171.2" height="24.65" shape-rendering="crispEdges"/><rect fill="#121212" x="1195.6" y="318.7" width="244" height="24.65" shape-rendering="crispEdges"/><rect fill="#121212" x="1439.6" y="318.7" width="12.2" height="24.65" shape-rendering="crispEdges"/><rect fill="#121212" x="1451.8" y="318.7" width="12.2" height="24.65" shape-rendering="crispEdges"/><rect fill="#121212" x="0" y="343.1" width="12.2" height="24.65" shape-rendering="crispEdges"/><rect fill="#121212" x="12.2" y="343.1" width="12.2" height="24.65" shape-rendering="crispEdges"/><rect fill="#121212" x="24.4" y="343.1" width="817.4" height="24.65" shape-rendering="crispEdges"/><rect fill="#121212" x="841.8" y="343.1" width="597.8" height="24.65" shape-rendering="crispEdges"/><rect fill="#121212" x="1439.6" y="343.1" width="12.2" height="24.65" shape-rendering="crispEdges"/><rect fill="#121212" x="1451.8" y="343.1" width="12.2" height="24.65" shape-rendering="crispEdges"/><rect fill="#121212" x="0" y="367.5" width="12.2" height="24.65" shape-rendering="crispEdges"/><rect fill="#121212" x="12.2" y="367.5" width="1439.6" height="24.65" shape-rendering="crispEdges"/><rect fill="#121212" x="1451.8" y="367.5" width="12.2" height="24.65" shape-rendering="crispEdges"/><rect fill="#121212" x="0" y="391.9" width="12.2" height="24.65" shape-rendering="crispEdges"/><rect fill="#121212" x="12.2" y="391.9" width="1439.6" height="24.65" shape-rendering="crispEdges"/><rect fill="#121212" x="1451.8" y="391.9" width="12.2" height="24.65" shape-rendering="crispEdges"/><rect fill="#121212" x="0" y="416.3" width="12.2" height="24.65" shape-rendering="crispEdges"/><rect fill="#121212" x="12.2" y="416.3" width="12.2" height="24.65" shape-rendering="crispEdges"/><rect fill="#121212" x="24.4" y="416.3" width="610" height="24.65" shape-rendering="crispEdges"/><rect fill="#121212" x="634.4" y="416.3" width="805.2" height="24.65" shape-rendering="crispEdges"/><rect fill="#121212" x="1439.6" y="416.3" width="12.2" height="24.65" shape-rendering="crispEdges"/><rect fill="#121212" x="1451.8" y="416.3" width="12.2" height="24.65" shape-rendering="crispEdges"/><rect fill="#121212" x="0" y="440.7" width="12.2" height="24.65" shape-rendering="crispEdges"/><rect fill="#121212" x="12.2" y="440.7" width="1439.6" height="24.65" shape-rendering="crispEdges"/><rect fill="#121212" x="1451.8" y="440.7" width="12.2" height="24.65" shape-rendering="crispEdges"/><rect fill="#121212" x="0" y="465.1" width="12.2" height="24.65" shape-rendering="crispEdges"/><rect fill="#121212" x="12.2" y="465.1" width="1439.6" height="24.65" shape-rendering="crispEdges"/><rect fill="#121212" x="1451.8" y="465.1" width="12.2" height="24.65" shape-rendering="crispEdges"/><rect fill="#121212" x="0" y="489.5" width="12.2" height="24.65" shape-rendering="crispEdges"/><rect fill="#121212" x="12.2" y="489.5" width="12.2" height="24.65" shape-rendering="crispEdges"/><rect fill="#121212" x="24.4" y="489.5" width="1073.6" height="24.65" shape-rendering="crispEdges"/><rect fill="#121212" x="1098" y="489.5" width="341.6" height="24.65" shape-rendering="crispEdges"/><rect fill="#121212" x="1439.6" y="489.5" width="12.2" height="24.65" shape-rendering="crispEdges"/><rect fill="#121212" x="1451.8" y="489.5" width="12.2" height="24.65" shape-rendering="crispEdges"/><rect fill="#121212" x="0" y="513.9" width="12.2" height="24.65" shape-rendering="crispEdges"/><rect fill="#121212" x="12.2" y="513.9" width="12.2" height="24.65" shape-rendering="crispEdges"/><rect fill="#121212" x="24.4" y="513.9" width="1073.6" height="24.65" shape-rendering="crispEdges"/><rect fill="#121212" x="1098" y="513.9" width="341.6" height="24.65" shape-rendering="crispEdges"/><rect fill="#121212" x="1439.6" y="513.9" width="12.2" height="24.65" shape-rendering="crispEdges"/><rect fill="#121212" x="1451.8" y="513.9" width="12.2" height="24.65" shape-rendering="crispEdges"/><rect fill="#121212" x="0" y="538.3" width="12.2" height="24.65" shape-rendering="crispEdges"/><rect fill="#121212" x="12.2" y="538.3" width="1439.6" height="24.65" shape-rendering="crispEdges"/><rect fill="#121212" x="1451.8" y="538.3" width="12.2" height="24.65" shape-rendering="crispEdges"/><rect fill="#121212" x="0" y="562.7" width="1464" height="24.65" shape-rendering="crispEdges"/><rect fill="#121212" x="0" y="587.1" width="1464" height="24.65" shape-rendering="crispEdges"/><rect fill="#121212" x="0" y="611.5" width="1464" height="24.65" shape-rendering="crispEdges"/><rect fill="#121212" x="0" y="635.9" width="1464" height="24.65" shape-rendering="crispEdges"/><rect fill="#121212" x="0" y="660.3" width="1464" height="24.65" shape-rendering="crispEdges"/><rect fill="#121212" x="0" y="684.7" width="1464" height="24.65" shape-rendering="crispEdges"/><rect fill="#121212" x="0" y="709.1" width="1464" height="24.65" shape-rendering="crispEdges"/><rect fill="#121212" x="0" y="733.5" width="1464" height="24.65" shape-rendering="crispEdges"/><rect fill="#242f38" x="0" y="757.9" width="36.6" height="24.65" shape-rendering="crispEdges"/><rect fill="#242f38" x="36.6" y="757.9" width="61" height="24.65" shape-rendering="crispEdges"/><rect fill="#242f38" x="97.6" y="757.9" width="36.6" height="24.65" shape-rendering="crispEdges"/><rect fill="#242f38" x="134.2" y="757.9" width="73.2" height="24.65" shape-rendering="crispEdges"/><rect fill="#242f38" x="207.4" y="757.9" width="36.6" height="24.65" shape-rendering="crispEdges"/><rect fill="#242f38" x="244" y="757.9" width="48.8" height="24.65" shape-rendering="crispEdges"/><rect fill="#242f38" x="292.8" y="757.9" width="36.6" height="24.65" shape-rendering="crispEdges"/><rect fill="#242f38" x="329.4" y="757.9" width="85.4" height="24.65" shape-rendering="crispEdges"/><rect fill="#242f38" x="414.8" y="757.9" width="36.6" height="24.65" shape-rendering="crispEdges"/><rect fill="#242f38" x="451.4" y="757.9" width="85.4" height="24.65" shape-rendering="crispEdges"/><rect fill="#242f38" x="536.8" y="757.9" width="780.8" height="24.65" shape-rendering="crispEdges"/><rect fill="#242f38" x="1317.6" y="757.9" width="12.2" height="24.65" shape-rendering="crispEdges"/><rect fill="#242f38" x="1329.8" y="757.9" width="24.4" height="24.65" shape-rendering="crispEdges"/><rect fill="#242f38" x="1354.2" y="757.9" width="97.6" height="24.65" shape-rendering="crispEdges"/><rect fill="#242f38" x="1451.8" y="757.9" width="12.2" height="24.65" shape-rendering="crispEdges"/>
    <g class="terminal-1252949026-matrix">
    <text class="terminal-1252949026-r1" x="0" y="20" textLength="12.2" clip-path="url(#terminal-1252949026-line-0)">╭</text><text class="terminal-1252949026-r1" x="12.2" y="20" textLength="1439.6" clip-path="url(#terminal-1252949026-line-0)">──────────────────────────────────────────────────────────────────────────────────────────────────────────────────────</text><text class="terminal-1252949026-r1" x="1451.8" y="20" textLength="12.2" clip-path="url(#terminal-1252949026-line-0)">╮</text><text class="terminal-1252949026-r2" x="1464" y="20" textLength="12.2" clip-path="url(#terminal-1252949026-line-0)">
</text><text class="terminal-1252949026-r1" x="0" y="44.4" textLength="12.2" clip-path="url(#terminal-1252949026-line-1)">│</text><text class="terminal-1252949026-r3" x="24.4" y="44.4" textLength="988.2" clip-path="url(#terminal-1252949026-line-1)">vllmstat&#160;&#160;mock-7b&#160;@&#160;http://localhost:8000&#160;&#160;engines&#160;1&#160;&#160;●&#160;connected&#160;&#160;up&#160;0h00m&#160;&#160;0.2s</text><text class="terminal-1252949026-r1" x="1451.8" y="44.4" textLength="12.2" clip-path="url(#terminal-1252949026-line-1)">│</text><text class="terminal-1252949026-r2" x="1464" y="44.4" textLength="12.2" clip-path="url(#terminal-1252949026-line-1)">
</text><text class="terminal-1252949026-r1" x="0" y="68.8" textLength="12.2" clip-path="url(#terminal-1252949026-line-2)">╰</text><text class="terminal-1252949026-r1" x="12.2" y="68.8" textLength="1439.6" clip-path="url(#terminal-1252949026-line-2)">──────────────────────────────────────────────────────────────────────────────────────────────────────────────────────</text><text class="terminal-1252949026-r1" x="1451.8" y="68.8" textLength="12.2" clip-path="url(#terminal-1252949026-line-2)">╯</text><text class="terminal-1252949026-r2" x="1464" y="68.8" textLength="12.2" clip-path="url(#terminal-1252949026-line-2)">
</text><text class="terminal-1252949026-r1" x="0" y="93.2" textLength="12.2" clip-path="url(#terminal-1252949026-line-3)">╭</text><text class="terminal-1252949026-r1" x="12.2" y="93.2" textLength="463.6" clip-path="url(#terminal-1252949026-line-3)">──────────────────────────────────────</text><text class="terminal-1252949026-r1" x="475.8" y="93.2" textLength="12.2" clip-path="url(#terminal-1252949026-line-3)">╮</text><text class="terminal-1252949026-r1" x="488" y="93.2" textLength="12.2" clip-path="url(#terminal-1252949026-line-3)">╭</text><text class="terminal-1252949026-r1" x="500.2" y="93.2" textLength="463.6" clip-path="url(#terminal-1252949026-line-3)">──────────────────────────────────────</text><text class="terminal-1252949026-r1" x="963.8" y="93.2" textLength="12.2" clip-path="url(#terminal-1252949026-line-3)">╮</text><text class="terminal-1252949026-r1" x="976" y="93.2" textLength="12.2" clip-path="url(#terminal-1252949026-line-3)">╭</text><text class="terminal-1252949026-r1" x="988.2" y="93.2" textLength="463.6" clip-path="url(#terminal-1252949026-line-3)">──────────────────────────────────────</text><text class="terminal-1252949026-r1" x="1451.8" y="93.2" textLength="12.2" clip-path="url(#terminal-1252949026-line-3)">╮</text><text class="terminal-1252949026-r2" x="1464" y="93.2" textLength="12.2" clip-path="url(#terminal-1252949026-line-3)">
</text><text class="terminal-1252949026-r1" x="0" y="117.6" textLength="12.2" clip-path="url(#terminal-1252949026-line-4)">│</text><text class="terminal-1252949026-r3" x="24.4" y="117.6" textLength="134.2" clip-path="url(#terminal-1252949026-line-4)">CONCURRENCY</text><text class="terminal-1252949026-r1" x="475.8" y="117.6" textLength="12.2" clip-path="url(#terminal-1252949026-line-4)">│</text><text class="terminal-1252949026-r1" x="488" y="117.6" textLength="12.2" clip-path="url(#terminal-1252949026-line-4)">│</text><text class="terminal-1252949026-r3" x="512.4" y="117.6" textLength="122" clip-path="url(#terminal-1252949026-line-4)">THROUGHPUT</text><text class="terminal-1252949026-r1" x="963.8" y="117.6" textLength="12.2" clip-path="url(#terminal-1252949026-line-4)">│</text><text class="terminal-1252949026-r1" x="976" y="117.6" textLength="12.2" clip-path="url(#terminal-1252949026-line-4)">│</text><text class="terminal-1252949026-r3" x="1000.4" y="117.6" textLength="195.2" clip-path="url(#terminal-1252949026-line-4)">LATENCY&#160;(recent)</text><text class="terminal-1252949026-r1" x="1451.8" y="117.6" textLength="12.2" clip-path="url(#terminal-1252949026-line-4)">│</text><text class="terminal-1252949026-r2" x="1464" y="117.6" textLength="12.2" clip-path="url(#terminal-1252949026-line-4)">
</text><text class="terminal-1252949026-r1" x="0" y="142" textLength="12.2" clip-path="url(#terminal-1252949026-line-5)">│</text><text class="terminal-1252949026-r3" x="24.4" y="142" textLength="244" clip-path="url(#terminal-1252949026-line-5)">&#160;running&#160;5&#160;&#160;▕▁█████▏</text><text class="terminal-1252949026-r1" x="475.8" y="142" textLength="12.2" clip-path="url(#terminal-1252949026-line-5)">│</text><text class="terminal-1252949026-r1" x="488" y="142" textLength="12.2" clip-path="url(#terminal-1252949026-line-5)">│</text><text class="terminal-1252949026-r3" x="512.4" y="142" textLength="317.2" clip-path="url(#terminal-1252949026-line-5)">&#160;gen&#160;&#160;&#160;&#160;592&#160;tok/s&#160;▕▁▃▅▇▇█▏</text><text class="terminal-1252949026-r1" x="963.8" y="142" textLength="12.2" clip-path="url(#terminal-1252949026-line-5)">│</text><text class="terminal-1252949026-r1" x="976" y="142" textLength="12.2" clip-path="url(#terminal-1252949026-line-5)">│</text><text class="terminal-1252949026-r3" x="1000.4" y="142" textLength="378.2" clip-path="url(#terminal-1252949026-line-5)">&#160;&#160;&#160;&#160;&#160;&#160;&#160;&#160;&#160;&#160;&#160;&#160;p50&#160;&#160;&#160;&#160;&#160;p90&#160;&#160;&#160;&#160;&#160;p99</text><text class="terminal-1252949026-r1" x="1451.8" y="142" textLength="12.2" clip-path="url(#terminal-1252949026-line-5)">│</text><text class="terminal-1252949026-r2" x="1464" y="142" textLength="12.2" clip-path="url(#terminal-1252949026-line-5)">
</text><text class="terminal-1252949026-r1" x="0" y="166.4" textLength="12.2" clip-path="url(#terminal-1252949026-line-6)">│</text><text class="terminal-1252949026-r3" x="24.4" y="166.4" textLength="244" clip-path="url(#terminal-1252949026-line-6)">&#160;waiting&#160;2&#160;&#160;▕▁▄▄███▏</text><text class="terminal-1252949026-r1" x="475.8" y="166.4" textLength="12.2" clip-path="url(#terminal-1252949026-line-6)">│</text><text class="terminal-1252949026-r1" x="488" y="166.4" textLength="12.2" clip-path="url(#terminal-1252949026-line-6)">│</text><text class="terminal-1252949026-r3" x="512.4" y="166.4" textLength="329.4" clip-path="url(#terminal-1252949026-line-6)">&#160;prompt&#160;1055&#160;tok/s&#160;▕▁▄▆▇▇█▏</text><text class="terminal-1252949026-r1" x="963.8" y="166.4" textLength="12.2" clip-path="url(#terminal-1252949026-line-6)">│</text><text class="terminal-1252949026-r1" x="976" y="166.4" textLength="12.2" clip-path="url(#terminal-1252949026-line-6)">│</text><text class="terminal-1252949026-r3" x="1000.4" y="166.4" textLength="378.2" clip-path="url(#terminal-1252949026-line-6)">&#160;TTFT&#160;&#160;&#160;&#160;&#160;300ms&#160;&#160;&#160;&#160;1.6s&#160;&#160;&#160;&#160;1.6s</text><text class="terminal-1252949026-r1" x="1451.8" y="166.4" textLength="12.2" clip-path="url(#terminal-1252949026-line-6)">│</text><text class="terminal-1252949026-r2" x="1464" y="166.4" textLength="12.2" clip-path="url(#terminal-1252949026-line-6)">
</text><text class="terminal-1252949026-r1" x="0" y="190.8" textLength="12.2" clip-path="url(#terminal-1252949026-line-7)">│</text><text class="terminal-1252949026-r3" x="24.4" y="190.8" textLength="170.8" clip-path="url(#terminal-1252949026-line-7)">&#160;preempt&#160;0.0/s</text><text class="terminal-1252949026-r1" x="475.8" y="190.8" textLength="12.2" clip-path="url(#terminal-1252949026-line-7)">│</text><text class="terminal-1252949026-r1" x="488" y="190.8" textLength="12.2" clip-path="url(#terminal-1252949026-line-7)">│</text><text class="terminal-1252949026-r3" x="512.4" y="190.8" textLength="329.4" clip-path="url(#terminal-1252949026-line-7)">&#160;tok/iter&#160;1024&#160;·&#160;16.6&#160;req/s</text><text class="terminal-1252949026-r1" x="963.8" y="190.8" textLength="12.2" clip-path="url(#terminal-1252949026-line-7)">│</text><text class="terminal-1252949026-r1" x="976" y="190.8" textLength="12.2" clip-path="url(#terminal-1252949026-line-7)">│</text><text class="terminal-1252949026-r3" x="1000.4" y="190.8" textLength="378.2" clip-path="url(#terminal-1252949026-line-7)">&#160;TPOT&#160;&#160;&#160;&#160;&#160;&#160;60ms&#160;&#160;&#160;320ms&#160;&#160;&#160;320ms</text><text class="terminal-1252949026-r1" x="1451.8" y="190.8" textLength="12.2" clip-path="url(#terminal-1252949026-line-7)">│</text><text class="terminal-1252949026-r2" x="1464" y="190.8" textLength="12.2" clip-path="url(#terminal-1252949026-line-7)">
</text><text class="terminal-1252949026-r1" x="0" y="215.2" textLength="12.2" clip-path="url(#terminal-1252949026-line-8)">╰</text><text class="terminal-1252949026-r1" x="12.2" y="215.2" textLength="463.6" clip-path="url(#terminal-1252949026-line-8)">──────────────────────────────────────</text><text class="terminal-1252949026-r1" x="475.8" y="215.2" textLength="12.2" clip-path="url(#terminal-1252949026-line-8)">╯</text><text class="terminal-1252949026-r1" x="488" y="215.2" textLength="12.2" clip-path="url(#terminal-1252949026-line-8)">╰</text><text class="terminal-1252949026-r1" x="500.2" y="215.2" textLength="463.6" clip-path="url(#terminal-1252949026-line-8)">──────────────────────────────────────</text><text class="terminal-1252949026-r1" x="963.8" y="215.2" textLength="12.2" clip-path="url(#terminal-1252949026-line-8)">╯</text><text class="terminal-1252949026-r1" x="976" y="215.2" textLength="12.2" clip-path="url(#terminal-1252949026-line-8)">│</text><text class="terminal-1252949026-r3" x="1000.4" y="215.2" textLength="378.2" clip-path="url(#terminal-1252949026-line-8)">&#160;e2e&#160;&#160;&#160;&#160;&#160;&#160;&#160;&#160;&#160;&#160;—&#160;&#160;&#160;&#160;&#160;&#160;&#160;—&#160;&#160;&#160;&#160;&#160;&#160;&#160;—</text><text class="terminal-1252949026-r1" x="1451.8" y="215.2" textLength="12.2" clip-path="url(#terminal-1252949026-line-8)">│</text><text class="terminal-1252949026-r2" x="1464" y="215.2" textLength="12.2" clip-path="url(#terminal-1252949026-line-8)">
</text><text class="terminal-1252949026-r1" x="976" y="239.6" textLength="12.2" clip-path="url(#terminal-1252949026-line-9)">│</text><text class="terminal-1252949026-r3" x="1000.4" y="239.6" textLength="378.2" clip-path="url(#terminal-1252949026-line-9)">&#160;queue&#160;&#160;&#160;&#160;&#160;&#160;&#160;&#160;—&#160;&#160;&#160;&#160;&#160;&#160;&#160;—&#160;&#160;&#160;&#160;&#160;&#160;&#160;—</text><text class="terminal-1252949026-r1" x="1451.8" y="239.6" textLength="12.2" clip-path="url(#terminal-1252949026-line-9)">│</text><text class="terminal-1252949026-r2" x="1464" y="239.6" textLength="12.2" clip-path="url(#terminal-1252949026-line-9)">
</text><text class="terminal-1252949026-r1" x="976" y="264" textLength="12.2" clip-path="url(#terminal-1252949026-line-10)">╰</text><text class="terminal-1252949026-r1" x="988.2" y="264" textLength="463.6" clip-path="url(#terminal-1252949026-line-10)">──────────────────────────────────────</text><text class="terminal-1252949026-r1" x="1451.8" y="264" textLength="12.2" clip-path="url(#terminal-1252949026-line-10)">╯</text><text class="terminal-1252949026-r2" x="1464" y="264" textLength="12.2" clip-path="url(#terminal-1252949026-line-10)">
</text><text class="terminal-1252949026-r1" x="0" y="288.4" textLength="12.2" clip-path="url(#terminal-1252949026-line-11)">╭</text><text class="terminal-1252949026-r1" x="12.2" y="288.4" textLength="1439.6" clip-path="url(#terminal-1252949026-line-11)">──────────────────────────────────────────────────────────────────────────────────────────────────────────────────────</text><text class="terminal-1252949026-r1" x="1451.8" y="288.4" textLength="12.2" clip-path="url(#terminal-1252949026-line-11)">╮</text><text class="terminal-1252949026-r2" x="1464" y="288.4" textLength="12.2" clip-path="url(#terminal-1252949026-line-11)">
</text><text class="terminal-1252949026-r1" x="0" y="312.8" textLength="12.2" clip-path="url(#terminal-1252949026-line-12)">│</text><text class="terminal-1252949026-r3" x="24.4" y="312.8" textLength="207.4" clip-path="url(#terminal-1252949026-line-12)">CACHE&#160;&amp;&#160;KV&#160;MEMORY</text><text class="terminal-1252949026-r1" x="1451.8" y="312.8" textLength="12.2" clip-path="url(#terminal-1252949026-line-12)">│</text><text class="terminal-1252949026-r2" x="1464" y="312.8" textLength="12.2" clip-path="url(#terminal-1252949026-line-12)">
</text><text class="terminal-1252949026-r1" x="0" y="337.2" textLength="12.2" clip-path="url(#terminal-1252949026-line-13)">│</text><text class="terminal-1252949026-r3" x="24.4" y="337.2" textLength="1171.2" clip-path="url(#terminal-1252949026-line-13)">&#160;reuse&#160;&#160;prefix&#160;hit&#160;45.0%&#160;▕▁▃▅▇█▏&#160;life&#160;30.0%&#160;&#160;&#160;sources&#160;compute&#160;70.0%&#160;·&#160;cache-hit&#160;30.0%&#160;·&#160;ext&#160;0.0%</text><text class="terminal-1252949026-r1" x="1451.8" y="337.2" textLength="12.2" clip-path="url(#terminal-1252949026-line-13)">│</text><text class="terminal-1252949026-r2" x="1464" y="337.2" textLength="12.2" clip-path="url(#terminal-1252949026-line-13)">
</text><text class="terminal-1252949026-r1" x="0" y="361.6" textLength="12.2" clip-path="url(#terminal-1252949026-line-14)">│</text><text class="terminal-1252949026-r3" x="24.4" y="361.6" textLength="817.4" clip-path="url(#terminal-1252949026-line-14)">&#160;memory&#160;KV&#160;usage&#160;19.2%&#160;(61.5k/320.0k&#160;tok)&#160;&#160;&#160;fp8_e4m3&#160;&#160;~2.0x&#160;vs&#160;fp16</text><text class="terminal-1252949026-r1" x="1451.8" y="361.6" textLength="12.2" clip-path="url(#terminal-1252949026-line-14)">│</text><text class="terminal-1252949026-r2" x="1464" y="361.6" textLength="12.2" clip-path="url(#terminal-1252949026-line-14)">
</text><text class="terminal-1252949026-r1" x="0" y="386" textLength="12.2" clip-path="url(#terminal-1252949026-line-15)">╰</text><text class="terminal-1252949026-r1" x="12.2" y="386" textLength="1439.6" clip-path="url(#terminal-1252949026-line-15)">──────────────────────────────────────────────────────────────────────────────────────────────────────────────────────</text><text class="terminal-1252949026-r1" x="1451.8" y="386" textLength="12.2" clip-path="url(#terminal-1252949026-line-15)">╯</text><text class="terminal-1252949026-r2" x="1464" y="386" textLength="12.2" clip-path="url(#terminal-1252949026-line-15)">
</text><text class="terminal-1252949026-r1" x="0" y="410.4" textLength="12.2" clip-path="url(#terminal-1252949026-line-16)">╭</text><text class="terminal-1252949026-r1" x="12.2" y="410.4" textLength="1439.6" clip-path="url(#terminal-1252949026-line-16)">──────────────────────────────────────────────────────────────────────────────────────────────────────────────────────</text><text class="terminal-1252949026-r1" x="1451.8" y="410.4" textLength="12.2" clip-path="url(#terminal-1252949026-line-16)">╮</text><text class="terminal-1252949026-r2" x="1464" y="410.4" textLength="12.2" clip-path="url(#terminal-1252949026-line-16)">
</text><text class="terminal-1252949026-r1" x="0" y="434.8" textLength="12.2" clip-path="url(#terminal-1252949026-line-17)">│</text><text class="terminal-1252949026-r3" x="24.4" y="434.8" textLength="610" clip-path="url(#terminal-1252949026-line-17)">SPEC&#160;DECODE&#160;&#160;acceptance&#160;42.0%&#160;&#160;accepted/draft&#160;2.10</text><text class="terminal-1252949026-r1" x="1451.8" y="434.8" textLength="12.2" clip-path="url(#terminal-1252949026-line-17)">│</text><text class="terminal-1252949026-r2" x="1464" y="434.8" textLength="12.2" clip-path="url(#terminal-1252949026-line-17)">
</text><text class="terminal-1252949026-r1" x="0" y="459.2" textLength="12.2" clip-path="url(#terminal-1252949026-line-18)">╰</text><text class="terminal-1252949026-r1" x="12.2" y="459.2" textLength="1439.6" clip-path="url(#terminal-1252949026-line-18)">──────────────────────────────────────────────────────────────────────────────────────────────────────────────────────</text><text class="terminal-1252949026-r1" x="1451.8" y="459.2" textLength="12.2" clip-path="url(#terminal-1252949026-line-18)">╯</text><text class="terminal-1252949026-r2" x="1464" y="459.2" textLength="12.2" clip-path="url(#terminal-1252949026-line-18)">
</text><text class="terminal-1252949026-r1" x="0" y="483.6" textLength="12.2" clip-path="url(#terminal-1252949026-line-19)">╭</text><text class="terminal-1252949026-r1" x="12.2" y="483.6" textLength="1439.6" clip-path="url(#terminal-1252949026-line-19)">──────────────────────────────────────────────────────────────────────────────────────────────────────────────────────</text><text class="terminal-1252949026-r1" x="1451.8" y="483.6" textLength="12.2" clip-path="url(#terminal-1252949026-line-19)">╮</text><text class="terminal-1252949026-r2" x="1464" y="483.6" textLength="12.2" clip-path="url(#terminal-1252949026-line-19)">
</text><text class="terminal-1252949026-r1" x="0" y="508" textLength="12.2" clip-path="url(#terminal-1252949026-line-20)">│</text><text class="terminal-1252949026-r3" x="24.4" y="508" textLength="1073.6" clip-path="url(#terminal-1252949026-line-20)">GPU&#160;0&#160;&#160;NVIDIA&#160;RTX&#160;4090&#160;&#160;90%&#160;&#160;20.6&#160;GB/24.0&#160;GB&#160;(86.0%)&#160;&#160;58°C&#160;&#160;140/300&#160;W&#160;&#160;clk&#160;2520/9501&#160;MHz</text><text class="terminal-1252949026-r1" x="1451.8" y="508" textLength="12.2" clip-path="url(#terminal-1252949026-line-20)">│</text><text class="terminal-1252949026-r2" x="1464" y="508" textLength="12.2" clip-path="url(#terminal-1252949026-line-20)">
</text><text class="terminal-1252949026-r1" x="0" y="532.4" textLength="12.2" clip-path="url(#terminal-1252949026-line-21)">│</text><text class="terminal-1252949026-r3" x="24.4" y="532.4" textLength="1073.6" clip-path="url(#terminal-1252949026-line-21)">GPU&#160;1&#160;&#160;NVIDIA&#160;RTX&#160;4090&#160;&#160;86%&#160;&#160;20.6&#160;GB/24.0&#160;GB&#160;(86.0%)&#160;&#160;61°C&#160;&#160;160/300&#160;W&#160;&#160;clk&#160;2520/9501&#160;MHz</text><text class="terminal-1252949026-r1" x="1451.8" y="532.4" textLength="12.2" clip-path="url(#terminal-1252949026-line-21)">│</text><text class="terminal-1252949026-r2" x="1464" y="532.4" textLength="12.2" clip-path="url(#terminal-1252949026-line-21)">
</text><text class="terminal-1252949026-r1" x="0" y="556.8" textLength="12.2" clip-path="url(#terminal-1252949026-line-22)">╰</text><text class="terminal-1252949026-r1" x="12.2" y="556.8" textLength="1439.6" clip-path="url(#terminal-1252949026-line-22)">──────────────────────────────────────────────────────────────────────────────────────────────────────────────────────</text><text class="terminal-1252949026-r1" x="1451.8" y="556.8" textLength="12.2" clip-path="url(#terminal-1252949026-line-22)">╯</text><text class="terminal-1252949026-r2" x="1464" y="556.8" textLength="12.2" clip-path="url(#terminal-1252949026-line-22)">
</text><text class="terminal-1252949026-r2" x="1464" y="581.2" textLength="12.2" clip-path="url(#terminal-1252949026-line-23)">
</text><text class="terminal-1252949026-r2" x="1464" y="605.6" textLength="12.2" clip-path="url(#terminal-1252949026-line-24)">
</text><text class="terminal-1252949026-r2" x="1464" y="630" textLength="12.2" clip-path="url(#terminal-1252949026-line-25)">
</text><text class="terminal-1252949026-r2" x="1464" y="654.4" textLength="12.2" clip-path="url(#terminal-1252949026-line-26)">
</text><text class="terminal-1252949026-r2" x="1464" y="678.8" textLength="12.2" clip-path="url(#terminal-1252949026-line-27)">
</text><text class="terminal-1252949026-r2" x="1464" y="703.2" textLength="12.2" clip-path="url(#terminal-1252949026-line-28)">
</text><text class="terminal-1252949026-r2" x="1464" y="727.6" textLength="12.2" clip-path="url(#terminal-1252949026-line-29)">
</text><text class="terminal-1252949026-r2" x="1464" y="752" textLength="12.2" clip-path="url(#terminal-1252949026-line-30)">
</text><text class="terminal-1252949026-r4" x="0" y="776.4" textLength="36.6" clip-path="url(#terminal-1252949026-line-31)">&#160;q&#160;</text><text class="terminal-1252949026-r3" x="36.6" y="776.4" textLength="61" clip-path="url(#terminal-1252949026-line-31)">Quit&#160;</text><text class="terminal-1252949026-r4" x="97.6" y="776.4" textLength="36.6" clip-path="url(#terminal-1252949026-line-31)">&#160;p&#160;</text><text class="terminal-1252949026-r3" x="134.2" y="776.4" textLength="73.2" clip-path="url(#terminal-1252949026-line-31)">Pause&#160;</text><text class="terminal-1252949026-r4" x="207.4" y="776.4" textLength="36.6" clip-path="url(#terminal-1252949026-line-31)">&#160;g&#160;</text><text class="terminal-1252949026-r3" x="244" y="776.4" textLength="48.8" clip-path="url(#terminal-1252949026-line-31)">GPU&#160;</text><text class="terminal-1252949026-r4" x="292.8" y="776.4" textLength="36.6" clip-path="url(#terminal-1252949026-line-31)">&#160;+&#160;</text><text class="terminal-1252949026-r3" x="329.4" y="776.4" textLength="85.4" clip-path="url(#terminal-1252949026-line-31)">Faster&#160;</text><text class="terminal-1252949026-r4" x="414.8" y="776.4" textLength="36.6" clip-path="url(#terminal-1252949026-line-31)">&#160;-&#160;</text><text class="terminal-1252949026-r3" x="451.4" y="776.4" textLength="85.4" clip-path="url(#terminal-1252949026-line-31)">Slower&#160;</text><text class="terminal-1252949026-r5" x="1317.6" y="776.4" textLength="12.2" clip-path="url(#terminal-1252949026-line-31)">▏</text><text class="terminal-1252949026-r4" x="1329.8" y="776.4" textLength="24.4" clip-path="url(#terminal-1252949026-line-31)">^p</text><text class="terminal-1252949026-r3" x="1354.2" y="776.4" textLength="97.6" clip-path="url(#terminal-1252949026-line-31)">&#160;palette</text>
    </g>
    </g>
</svg>
